PathFileType	4	(X/Y/Z)	/Users/itak/Documents/Research/Walk-IL/dataset/trc/00353_00011.trc
DataRate	CameraRate	NumFrames	NumMarkers	Units	OrigDataRate	OrigDataStartFrame	OrigNumFrames
100.000000	100.000000	4	55	mm	100.000000	168	674
Frame#	Time	RPSI			LPSI			L3			STRN			T10			C7			CLAV			RBAK			LBAK			LSHO			LUPA			LAEL			LAOL			LWTS			LWPS			LFRA			LIFD			LHPS			LHTS			RSHO			RUPA			RAEL			RAOL			RWTS			RWPS			RFRA			RIFD			RHTS			RHPS			RBHD			LFHD			RFHD			LBHD			LHIP			RASI			LASI			LKNE			LTHI			LANK			LTIP			LTOE			LMT1			LMT5			LHEE			RKNE			RANK			RTIP			RTOE			RMT1			RMT5			RHEE			RHIP			RTHI			*53			*54			
		X1	Y1	Z1	X2	Y2	Z2	X3	Y3	Z3	X4	Y4	Z4	X5	Y5	Z5	X6	Y6	Z6	X7	Y7	Z7	X8	Y8	Z8	X9	Y9	Z9	X10	Y10	Z10	X11	Y11	Z11	X12	Y12	Z12	X13	Y13	Z13	X14	Y14	Z14	X15	Y15	Z15	X16	Y16	Z16	X17	Y17	Z17	X18	Y18	Z18	X19	Y19	Z19	X20	Y20	Z20	X21	Y21	Z21	X22	Y22	Z22	X23	Y23	Z23	X24	Y24	Z24	X25	Y25	Z25	X26	Y26	Z26	X27	Y27	Z27	X28	Y28	Z28	X29	Y29	Z29	X30	Y30	Z30	X31	Y31	Z31	X32	Y32	Z32	X33	Y33	Z33	X34	Y34	Z34	X35	Y35	Z35	X36	Y36	Z36	X37	Y37	Z37	X38	Y38	Z38	X39	Y39	Z39	X40	Y40	Z40	X41	Y41	Z41	X42	Y42	Z42	X43	Y43	Z43	X44	Y44	Z44	X45	Y45	Z45	X46	Y46	Z46	X47	Y47	Z47	X48	Y48	Z48	X49	Y49	Z49	X50	Y50	Z50	X51	Y51	Z51	X52	Y52	Z52	X53	Y53	Z53	X54	Y54	Z54	X55	Y55	Z55	

169	1.68	62.64746475219727	952.5097045898438	842.094970703125	31.78023910522461	959.08203125	968.9160766601562	44.58817672729492	1017.206176757812	899.7652587890625	-179.7073974609375	1197.283935546875	842.3663940429688	49.46638107299805	1136.921020507812	909.318603515625	1.678234100341797	1384.640625	907.6324462890625	-142.94140625	1324.455200195312	853.1036376953125	71.15647125244141	1245.06640625	861.101318359375	-19.33642387390137	1350.059936523438	1007.782104492188	-118.2292404174805	1366.134521484375	1033.233520507812	-120.1117172241211	1248.500854492188	1106.267456054688	-136.2395324707031	1045.73095703125	1123.862182617188	-61.06182098388672	1032.149780273438	1087.810668945312	-219.6091156005859	801.4733276367188	1070.008544921875	-195.2905731201172	793.5062866210938	1133.856079101562	-153.4134674072266	941.4796142578125	1133.0830078125	-224.3629150390625	645.970458984375	1066.814086914062	-191.4890289306641	722.9953002929688	1132.892700195312	-237.6845245361328	724.5086669921875	1086.707275390625	2.07277512550354	1368.382202148438	735.8187255859375	33.81930923461914	1302.970336914062	680.9658203125	39.20674896240234	1036.085571289062	639.4901733398438	51.08786773681641	1028.232421875	732.39794921875	-98.63961791992188	819.9666137695312	653.5586547851562	-48.80675888061523	798.9912719726562	599.09423828125	14.38233661651611	969.2841796875	623.0222778320312	-123.9894027709961	648.8037719726562	648.4862060546875	-132.2296142578125	721.0555419921875	634.6182250976562	-72.43437194824219	716.1422729492188	599.1826782226562	2.816796779632568	1580.117919921875	818.981201171875	-203.5024108886719	1606.107421875	845.7073364257812	-148.1703643798828	1599.8046875	760.5426025390625	-51.71907424926758	1583.083984375	953.115478515625	-66.22161102294922	914.1879272460938	1062.806274414062	-103.5891571044922	922.6447143554688	740.7780151367188	-180.0935516357422	929.2970581054688	967.5977172851562	-177.8298950195312	457.6220703125	1059.988159179688	-170.3329010009766	588.4989624023438	1059.046020507812	179.0164489746094	224.6553802490234	1158.47509765625	-5.815877914428711	325.386962890625	1120.843383789062	120.5984344482422	45.74269866943359	1056.895874023438	157.3974456787109	113.6336517333984	1033.2802734375	143.2327880859375	103.3644866943359	1146.015014648438	208.5492401123047	262.9982299804688	1100.476806640625	-141.4174194335938	440.1049499511719	787.6401977539062	-117.6875	48.74341583251953	921.6721801757812	-165.4251861572266	320.9992370605469	816.6236572265625	-308.985595703125	45.15876770019531	860.8888549804688	-285.2544555664062	41.877197265625	925.8992919921875	-193.0040130615234	40.22588729858398	852.1006469726562	-102.8546829223633	51.29728317260742	988.9595947265625	3.006114721298218	892.5772705078125	766.4636840820312	-100.0053405761719	691.935791015625	714.0196533203125	nan	nan	nan	nan	nan	nan	
170	1.69	56.69350433349609	952.885009765625	840.35546875	23.96616554260254	959.4278564453125	966.7196655273438	38.1014404296875	1017.612548828125	897.604736328125	-185.9944763183594	1198.027709960938	837.7415161132812	42.77883529663086	1137.458984375	906.8681640625	-5.198626041412354	1385.193359375	904.619384765625	-149.24072265625	1325.155029296875	848.9266357421875	64.72217559814453	1245.6337890625	858.6896362304688	-26.9241828918457	1350.62451171875	1004.550109863281	-126.0009002685547	1366.683471679688	1029.258422851562	-128.4822845458984	1249.02197265625	1102.379150390625	-145.2341003417969	1046.461669921875	1120.254760742188	-69.59049987792969	1032.591918945312	1084.723999023438	-228.9102172851562	802.3665771484375	1066.19921875	-204.9888763427734	794.4288330078125	1130.202514648438	-162.7546997070312	942.2042236328125	1129.427368164062	-234.0916748046875	646.7716674804688	1063.386596679688	-201.4169311523438	723.9303588867188	1129.38916015625	-247.3325500488281	725.5488891601562	1082.942504882812	-3.245917320251465	1368.997192382812	732.8353271484375	28.78201866149902	1303.5224609375	678.1700439453125	32.55208969116211	1036.6767578125	635.5472412109375	44.4309196472168	1028.411743164062	728.3687744140625	-108.9109878540039	823.0609130859375	649.3180541992188	-59.62019729614258	801.2055053710938	594.7515258789062	6.780474185943604	970.2457275390625	618.9444580078125	-138.1505584716797	652.6674194335938	643.3388061523438	-144.8198089599609	725.1109619140625	629.7974243164062	-85.10251617431641	719.0029296875	594.3865356445312	-3.677412748336792	1580.726684570312	815.6925659179688	-210.2293701171875	1606.597900390625	840.7510986328125	-154.1580963134766	1600.203491210938	756.025146484375	-59.19850921630859	1583.890014648438	949.3649291992188	-77.06710815429688	913.865966796875	1057.460327148438	-107.9878540039062	923.0951538085938	736.1725463867188	-187.6896820068359	930.4388427734375	961.6790771484375	-198.9813690185547	459.9067993164062	1052.17041015625	-187.5307922363281	590.540283203125	1052.19384765625	154.7477111816406	224.9929046630859	1158.46923828125	-29.42229080200195	326.9635314941406	1116.482055664062	92.19239807128906	47.85687637329102	1056.335083007812	131.9700927734375	113.9966430664062	1033.046752929688	114.7542343139648	104.9379196166992	1145.621459960938	186.3346405029297	261.8041381835938	1100.68359375	-143.3612518310547	439.5489196777344	785.8468017578125	-117.649772644043	48.77443313598633	921.5223388671875	-166.8989562988281	320.4659729003906	815.5045166015625	-308.9476623535156	45.08364105224609	860.8592529296875	-285.2801208496094	41.91802597045898	925.8851318359375	-192.8955993652344	40.22281265258789	851.9698486328125	-102.8939590454102	51.58685684204102	988.9210205078125	-1.400667905807495	892.9967651367188	762.3318481445312	-103.0559768676758	691.4131469726562	711.4301147460938	nan	nan	nan	nan	nan	nan	
171	1.7	50.82897186279297	953.2265014648438	838.7214965820312	16.15127754211426	959.827880859375	964.5670776367188	31.6706485748291	1018.067321777344	895.53857421875	-192.1032409667969	1198.792602539062	833.0264282226562	36.1660041809082	1138.023315429688	904.5228271484375	-12.0073709487915	1385.763305664062	901.6534423828125	-155.4237060546875	1325.87451171875	844.7102661132812	58.37432098388672	1246.234375	856.3515014648438	-34.50133514404297	1351.2216796875	1001.327331542969	-133.7765808105469	1367.27294921875	1025.2392578125	-136.8553314208984	1249.592041015625	1098.451416015625	-154.2017059326172	1047.227172851562	1116.5693359375	-78.15474700927734	1033.060424804688	1081.495239257812	-238.1798095703125	803.3200073242188	1062.275756835938	-214.6015319824219	795.3750610351562	1126.438110351562	-172.0140991210938	942.975830078125	1125.702758789062	-243.5720825195312	647.3496704101562	1059.539672851562	-211.261962890625	724.8762817382812	1125.738037109375	-256.8588562011719	726.6209106445312	1079.051513671875	-8.392082214355469	1369.651000976562	729.9152221679688	23.94124031066895	1304.112670898438	675.4536743164062	26.14463043212891	1037.312622070312	631.7810668945312	37.84932708740234	1028.638305664062	724.533447265625	-118.9484100341797	826.291259765625	645.0077514648438	-70.09809875488281	803.5308227539062	590.458984375	-0.5392941236495972	971.2731323242188	614.99072265625	-152.06884765625	656.7581176757812	638.11376953125	-157.1145629882812	729.3470458984375	624.8539428710938	-97.41173553466797	722.0267333984375	589.6300659179688	-10.06794452667236	1581.351440429688	812.4280395507812	-216.8599853515625	1607.0673828125	835.77294921875	-160.0282897949219	1600.5888671875	751.4948120117188	-66.61141204833984	1584.7060546875	945.6249389648438	-88.56290435791016	913.3528442382812	1051.598022460938	-112.1063842773438	923.5380859375	731.5907592773438	-195.1888122558594	931.6070556640625	955.6571655273438	-219.6207733154297	462.5074768066406	1043.699951171875	-204.3654632568359	592.8258666992188	1044.926513671875	129.9074096679688	224.4699249267578	1158.021240234375	-53.11074829101562	328.3207092285156	1111.568359375	62.24575042724609	49.41189956665039	1055.60302734375	105.3163223266602	113.3542404174805	1032.466064453125	85.1258544921875	105.9712982177734	1144.855346679688	163.6632690429688	259.3874816894531	1100.385009765625	-145.1399078369141	439.0167236328125	784.1329956054688	-117.5918731689453	48.80780410766602	921.3630981445312	-168.2392272949219	319.9715270996094	814.465576171875	-308.9010009765625	45.02489852905273	860.8258666992188	-285.2809143066406	41.95696640014648	925.8570556640625	-192.7793731689453	40.20911407470703	851.8540649414062	-102.9272918701172	51.88097381591797	988.857177734375	-5.527509689331055	893.4088134765625	758.2240600585938	-106.0094223022461	690.8687133789062	708.9066772460938	nan	nan	nan	nan	nan	nan	
172	1.71	45.03080368041992	953.5228271484375	837.1757202148438	8.341092109680176	960.2478637695312	962.4541625976562	25.29115676879883	1018.574768066406	893.557373046875	-198.0450592041016	1199.56640625	828.2183227539062	29.6099967956543	1138.608154296875	902.2607421875	-18.75680351257324	1386.35302734375	898.7177124023438	-161.5050964355469	1326.602905273438	840.4459838867188	52.09617233276367	1246.86474609375	854.0736694335938	-42.08488082885742	1351.842651367188	998.1060180664062	-141.5730285644531	1367.902099609375	1021.160034179688	-145.2569274902344	1250.219482421875	1094.468994140625	-163.14697265625	1048.017822265625	1112.789916992188	-86.79020690917969	1033.548461914062	1078.125610351562	-247.3873291015625	804.31787109375	1058.225219726562	-224.1388397216797	796.3446044921875	1122.551879882812	-181.2027435302734	943.793212890625	1121.905395507812	-252.9100952148438	647.8195190429688	1055.333984375	-221.0385131835938	725.8289794921875	1121.942504882812	-266.26220703125	727.70166015625	1075.0224609375	-13.38132572174072	1370.345458984375	727.0478515625	19.27895164489746	1304.740112304688	672.8035278320312	19.98883438110352	1037.986694335938	628.197509765625	31.34637260437012	1028.918334960938	720.9019165039062	-128.73486328125	829.6472778320312	640.626708984375	-80.20664978027344	805.944580078125	586.2299194335938	-7.563216686248779	972.354248046875	611.1661376953125	-165.7046661376953	661.0596313476562	632.8436279296875	-169.0669097900391	733.7373046875	619.81103515625	-109.322868347168	725.1796875	584.9328002929688	-16.35453987121582	1581.989379882812	809.1840209960938	-223.3936614990234	1607.526611328125	830.7660522460938	-165.7805480957031	1600.968627929688	746.9498291015625	-73.95625305175781	1585.515014648438	941.88916015625	-100.3222351074219	912.8636474609375	1045.531372070312	-115.9520111083984	923.95166015625	727.0639038085938	-202.6349182128906	932.8040771484375	949.5741577148438	-239.6578826904297	465.3727722167969	1034.602172851562	-220.8014373779297	595.34130859375	1037.269775390625	104.5294876098633	223.0402984619141	1157.079223632812	-76.76618194580078	329.4230041503906	1106.115844726562	30.90949440002441	50.44383239746094	1054.566650390625	77.50724792480469	111.8033599853516	1031.48046875	54.48740386962891	106.5386505126953	1143.619018554688	140.5607757568359	255.7901153564453	1099.593383789062	-146.7454681396484	438.5044250488281	782.5225830078125	-117.523323059082	48.83668899536133	921.2122802734375	-169.417236328125	319.5154418945312	813.4983520507812	-308.8539428710938	44.98117446899414	860.7944946289062	-285.2615051269531	41.99762725830078	925.8131713867188	-192.6701049804688	40.18776702880859	851.7592163085938	-102.9560699462891	52.17459106445312	988.7750244140625	-9.381568908691406	893.791748046875	754.171875	-108.8663101196289	690.2865600585938	706.4532470703125	nan	nan	nan	nan	nan	nan	
